# xmcd CD database file
#
# Track frame offsets:
#	150
#	14946
#	32044
#	43275
#	57396
#	78595
#	96570
#	115948
#	134174
#	146431
#	164250
#	187384
#	199055
#	220453
#	233633
#	254470
#
# Disc length: 3600 seconds
#
# Revision: 0
# Processed by: cddbd v1.5PL3 Copyright (c) Steve Scherf et al.
# Submitted via: CDex 1.50beta10
#
DISCID=040e0e10
DTITLE=Louisiana "Guitar" Red - Down And Out Blues
DYEAR=2002
DGENRE=Blues
TTITLE0=Not Satisfied
TTITLE1=Down On Me
TTITLE2=Hypocrite Blues
TTITLE3=Whoopin - Hollerin
TTITLE4=Low Down Blues
TTITLE5=You Crazy Baby
TTITLE6=Down On the Bayou
TTITLE7=Strawberry
TTITLE8=Ain't Nobody But Us Chickens
TTITLE9=I Miss You So
TTITLE10=Late In The evening
TTITLE11=So Close
TTITLE12=When The Sun Rose This Morning
TTITLE13=Rail Road Blues
TTITLE14=Mind To Ramble
TTITLE15=Poodle Dog
EXTD=YEAR: 2002
EXTT0=
EXTT1=
EXTT2=
EXTT3=
EXTT4=
EXTT5=
EXTT6=
EXTT7=
EXTT8=
EXTT9=
EXTT10=
EXTT11=
EXTT12=
EXTT13=
EXTT14=
EXTT15=
PLAYORDER=
